# xmcd
#
# Track frame offsets:
#	150
#	23293
#	43222
#	69750
#	101876
#	129485
#	150752
#	173380
#	193769
#
# Disc length: 2894 seconds
#
# Revision: 0
# Processed by: cddbd v1.5.2PL0 Copyright (c) Steve Scherf et al.
# Submitted via: EasyCDDAExtractor 16.0.6.1
#
DISCID=610b4c09
DTITLE=Storia - Dreamlike on A Fading Road
DYEAR=2012
DGENRE=
TTITLE0=Land of Dreams
TTITLE1=Last Night
TTITLE2=Rhytihmic Serpent
TTITLE3=Fall to Earth
TTITLE4=Swimming Tide
TTITLE5=Giving Thanks
TTITLE6=Meltdown
TTITLE7=A Somewhat Something
TTITLE8=Watch the Stone
EXTD=
EXTT0=
EXTT1=
EXTT2=
EXTT3=
EXTT4=
EXTT5=
EXTT6=
EXTT7=
EXTT8=
PLAYORDER=
